<mxfile host="app.diagrams.net" modified="2024-10-25T16:12:55.445Z" agent="Mozilla/5.0 (Windows NT 10.0; Win64; x64) AppleWebKit/537.36 (KHTML, like Gecko) Chrome/130.0.0.0 Safari/537.36" version="24.6.2" etag="dmmrgZQzKR83-bWipMp1" type="github">
  <diagram name="Page-1" id="EabqT_4FF5yxjb28AJkN">
    <mxGraphModel>
      <root>
        <mxCell id="0" />
        <mxCell id="1" parent="0" />
      </root>
    </mxGraphModel>
  </diagram>
</mxfile>
